<svg xmlns="http://www.w3.org/2000/svg" version="1.1" xmlns:xlink="http://www.w3.org/1999/xlink" xmlns:svgjs="http://svgjs.dev/svgjs" width="128" height="128" viewBox="0 0 128 128"><g transform="matrix(0.8046875,0,0,0.8046875,12.677063555149758,12.760752631578946)"><svg viewBox="0 0 95 95" data-background-color="#000000" preserveAspectRatio="xMidYMid meet" height="128" width="128" xmlns="http://www.w3.org/2000/svg" xmlns:xlink="http://www.w3.org/1999/xlink"><g id="tight-bounds" transform="matrix(1,0,0,1,-0.1633110460119127,-0.24049999999999727)"><svg viewBox="0 0 95.32662209202383 95.481" height="95.481" width="95.32662209202383"><g><svg viewBox="0 0 95.32662209202383 95.481" height="95.481" width="95.32662209202383"><g><svg viewBox="0 0 95.32662209202383 95.481" height="95.481" width="95.32662209202383"><g id="textblocktransform"><svg viewBox="0 0 95.32662209202383 95.481" height="95.481" width="95.32662209202383" id="textblock"><g><svg viewBox="0 0 95.32662209202383 95.481" height="95.481" width="95.32662209202383"><g><svg viewBox="0 0 95.32662209202383 95.481" height="95.481" width="95.32662209202383"><g><svg xmlns="http://www.w3.org/2000/svg" xml:space="preserve" viewBox="0 0.006 100.00005364398459 100.162" id="icon-0" width="95.32662209202383" height="95.481" x="0" y="0" class="icon-icon-0" data-fill-palette-color="accent"><path d="M93.557 74.68A49.56 49.56 0 0 0 100 50.171C100 42.581 98.306 35 95.28 29H67.138zM6.431 25.554C2.338 32.804 0 41.222 0 50.142 0 57.962 1.797 65 4.998 72h28.179zM40.106 25h53.14C85.276 11 70.986 1.738 54.369 0.299zM23.125 46.318L49.863 0.006C32.858 0.052 17.851 8.588 8.853 21.598zM77.189 54.316L50.816 99.994c16.709-0.268 31.424-8.729 40.306-21.544zM60.209 76H7.101c8.136 13 22.514 22.937 39.16 24.168z" fill="#e470b9" data-fill-palette-color="accent"></path></svg></g></svg></g></svg></g></svg></g></svg></g></svg></g><defs></defs></svg><rect width="95.32662209202383" height="95.481" fill="none" stroke="none" visibility="hidden"></rect></g></svg></g></svg>